<svg xmlns="http://www.w3.org/2000/svg" viewBox="0 0 52 54" width="38" height="40"><path d="M25.25 41.67A1 1 0 0026 42a.92.92 0 00.75-.34c.35-.39 8.48-9.7 13-20a15 15 0 001.48-6.5 15.26 15.26 0 00-30.51 0 15 15 0 001.45 6.47C16.65 32 24.9 41.27 25.25 41.67zM26 2a13.22 13.22 0 0113.2 13.17 13 13 0 01-1.3 5.67c-3.6 8.24-9.78 16.05-11.9 18.62-2.15-2.56-8.42-10.38-12-18.65a13 13 0 01-1.27-5.64A13.23 13.23 0 0126 2z" fill="#fff"/><path d="M26 22.23A7.24 7.24 0 1018.71 15 7.24 7.24 0 0026 22.23zm0-12.47A5.24 5.24 0 1120.71 15 5.25 5.25 0 0126 9.76zm26 42.99l-6-23a1 1 0 00-.6-.68l-5-2-.74 1.86 4.53 1.81 5.32 20.38-10-5a1 1 0 00-.87 0L26 51.9l-12.58-5.81a1 1 0 00-.87 0l-10 5 5.29-20.35 4.53-1.81-.74-1.86-5 2a1 1 0 00-.6.68l-6 23a1 1 0 00.34 1 1 1 0 001.08.11L13 48.11l12.56 5.8a1 1 0 00.84 0l12.6-5.8 11.57 5.78A.91.91 0 0051 54a1 1 0 00.63-.22 1 1 0 00.37-1.03z" fill="#fff"/></svg>